<svg xmlns="http://www.w3.org/2000/svg" xmlns:xlink="http://www.w3.org/1999/xlink" width="500" zoomAndPan="magnify" viewBox="0 0 375 374.999991" height="500" preserveAspectRatio="xMidYMid meet" version="1.2"><defs><clipPath id="fc9dd8ead3"><path d="M 7.035156 38 L 367.785156 38 L 367.785156 217.5 L 7.035156 217.5 Z M 7.035156 38 "/></clipPath></defs><g id="329a64f83e"><rect x="0" width="375" y="0" height="374.999991" style="fill:#ffffff;fill-opacity:1;stroke:none;"/><rect x="0" width="375" y="0" height="374.999991" style="fill:#ffffff;fill-opacity:1;stroke:none;"/><g clip-rule="nonzero" clip-path="url(#fc9dd8ead3)"><path style=" stroke:none;fill-rule:nonzero;fill:#000000;fill-opacity:1;" d="M 367.253906 179.472656 C 366.699219 178.207031 365.75 177.175781 364.402344 176.621094 C 363.136719 176.066406 361.710938 176.066406 360.363281 176.542969 L 341.03125 184.308594 L 315.28125 125.125 C 327.800781 114.429688 336.355469 101.992188 337.226562 91.453125 C 338.101562 80.996094 334.21875 70.933594 325.820312 62.378906 C 310.925781 46.929688 283.117188 37.5 256.734375 38.847656 C 236.214844 39.957031 218.625 52.15625 207.453125 62.21875 C 197.867188 70.855469 191.449219 79.253906 189.074219 82.5 C 182.417969 76.242188 173.464844 72.203125 161.742188 70.300781 C 141.855469 67.128906 123.316406 74.894531 110.878906 91.691406 C 102.082031 81.074219 89.484375 77.113281 77.523438 77.589844 C 72.292969 66.65625 65.164062 55.40625 45.59375 52.078125 C 42.109375 51.523438 38.066406 52.632812 37.039062 56.117188 C 36.484375 57.941406 36.640625 59.523438 37.511719 60.871094 C 39.414062 63.804688 43.929688 64.359375 46.941406 64.753906 L 47.496094 64.832031 C 52.566406 65.546875 57.398438 67.605469 60.488281 70.457031 C 63.101562 72.835938 64.765625 76.082031 66.351562 79.253906 C 64.847656 79.648438 63.421875 80.125 61.996094 80.679688 C 59.300781 81.707031 56.765625 82.976562 54.46875 84.324219 C 44.246094 75.527344 33.394531 68.082031 13.746094 73.230469 C 10.339844 74.101562 7.089844 76.875 7.566406 80.441406 C 7.804688 82.34375 8.59375 83.6875 9.941406 84.5625 C 12.875 86.460938 17.230469 85.117188 20.164062 84.242188 L 20.71875 84.085938 C 25.628906 82.660156 30.859375 82.5 34.820312 83.847656 C 37.75 84.796875 41.710938 88.285156 44.5625 90.820312 C 44.800781 91.058594 45.039062 91.214844 45.277344 91.375 C 37.988281 98.742188 33.789062 108.328125 33.789062 118.707031 C 33.789062 119.738281 33.867188 120.765625 33.949219 121.71875 C 34.976562 134.949219 43.457031 147.386719 55.417969 154.199219 C 55.496094 154.199219 55.496094 154.28125 55.578125 154.28125 C 57.875 155.628906 60.332031 156.738281 62.945312 157.609375 C 67.300781 159.035156 71.816406 159.746094 76.414062 159.746094 C 89.328125 159.746094 102.164062 154.121094 110.324219 144.457031 C 114.441406 148.65625 118.640625 152.21875 122.839844 155.152344 L 107.945312 189.695312 C 106.359375 193.339844 102.796875 195.714844 98.753906 195.714844 L 86.394531 195.714844 C 83.464844 195.714844 81.167969 198.09375 81.167969 200.945312 C 81.167969 203.875 83.542969 206.175781 86.394531 206.175781 L 98.753906 206.175781 C 106.914062 206.175781 114.285156 201.339844 117.53125 193.816406 L 131.953125 160.460938 C 138.210938 163.390625 144.546875 164.976562 151.046875 165.214844 L 148.746094 172.898438 C 148.589844 173.453125 148.511719 174.007812 148.511719 174.5625 C 148.511719 174.722656 148.511719 174.878906 148.589844 175.039062 L 138.84375 197.617188 C 137.257812 201.261719 133.617188 203.636719 129.652344 203.636719 L 117.292969 203.636719 C 114.441406 203.636719 112.066406 206.015625 112.066406 208.867188 C 112.066406 211.800781 114.441406 214.097656 117.292969 214.097656 L 129.652344 214.097656 C 137.8125 214.097656 145.183594 209.265625 148.511719 201.738281 L 158.492188 178.683594 C 158.96875 178.207031 159.363281 177.652344 159.679688 177.097656 L 166.335938 163.390625 C 172.121094 161.808594 177.585938 159.113281 182.339844 155.785156 L 182.261719 161.171875 C 182.261719 161.332031 182.179688 161.488281 182.179688 161.570312 C 177.746094 182.882812 168.554688 196.191406 158.730469 208.945312 C 156.988281 211.246094 157.460938 214.492188 159.679688 216.316406 C 160.550781 217.027344 161.742188 217.425781 162.929688 217.425781 C 164.59375 217.425781 166.097656 216.632812 167.128906 215.363281 C 174.734375 205.460938 185.113281 191.914062 190.894531 170.046875 C 192.402344 169.253906 193.429688 167.828125 193.75 166.085938 L 199.609375 134.15625 C 199.847656 133.601562 200.007812 132.96875 200.164062 132.335938 L 225.359375 170.601562 C 225.597656 170.917969 225.835938 171.234375 226.074219 171.550781 C 226.152344 171.710938 226.230469 171.867188 226.3125 172.027344 C 230.828125 181.535156 235.5 191.359375 241.207031 200.546875 C 248.019531 211.5625 254.039062 213.226562 260.21875 214.015625 C 260.773438 214.097656 261.25 214.175781 261.804688 214.253906 C 262.121094 214.335938 262.4375 214.335938 262.675781 214.335938 C 265.210938 214.335938 267.429688 212.511719 267.824219 209.976562 C 268.0625 208.628906 267.746094 207.203125 266.953125 206.09375 C 266.160156 204.90625 264.972656 204.191406 263.546875 203.957031 C 262.835938 203.796875 262.121094 203.71875 261.40625 203.636719 C 257.683594 203.164062 254.753906 202.765625 250.078125 195.082031 C 244.769531 186.445312 240.253906 177.019531 235.976562 167.90625 C 236.054688 166.957031 235.898438 166.007812 235.5 165.054688 L 227.972656 147.941406 C 235.421875 150.238281 242.710938 151.191406 249.601562 151.191406 C 255.941406 151.191406 261.882812 150.398438 267.269531 149.289062 L 292.070312 206.253906 C 293.652344 209.898438 297.21875 212.273438 301.179688 212.273438 C 302.367188 212.273438 303.636719 212.035156 304.902344 211.5625 L 323.363281 204.113281 C 325.976562 203.003906 327.324219 199.996094 326.292969 197.300781 C 325.1875 194.6875 322.175781 193.339844 319.480469 194.367188 L 301.496094 201.65625 L 277.492188 146.59375 C 279.3125 145.960938 281.136719 145.40625 282.71875 144.773438 C 291.277344 141.445312 299.359375 137.007812 306.648438 131.859375 L 331.445312 188.824219 C 333.109375 192.546875 336.753906 195.003906 340.792969 195.003906 C 342.0625 195.003906 343.40625 194.765625 344.597656 194.210938 L 364.164062 186.367188 C 365.433594 185.890625 366.460938 184.863281 367.015625 183.515625 C 367.730469 182.167969 367.730469 180.742188 367.253906 179.472656 Z M 302.289062 204.90625 L 320.75 197.457031 C 321.699219 197.0625 322.808594 197.539062 323.203125 198.488281 C 323.601562 199.441406 323.125 200.546875 322.097656 201.023438 L 303.636719 208.472656 C 299.914062 209.898438 296.425781 208.15625 295.078125 204.984375 L 270.597656 148.65625 C 271.867188 148.339844 273.054688 148.019531 274.320312 147.703125 L 298.566406 203.480469 C 299.277344 204.746094 300.785156 205.382812 302.289062 204.90625 Z M 323.679688 64.515625 C 331.367188 72.519531 335.007812 81.707031 334.21875 91.214844 C 333.503906 99.929688 325.976562 111.65625 314.015625 122.195312 L 308.308594 109.042969 C 311.71875 94.464844 310.765625 74.816406 298.484375 48.671875 C 308.46875 52.472656 317.34375 57.941406 323.679688 64.515625 Z M 256.890625 41.9375 C 270.203125 41.304688 283.828125 43.363281 295.871094 47.640625 C 304.507812 65.46875 311.320312 85.273438 306.964844 105.953125 L 298.882812 87.414062 C 297.613281 84.402344 295 82.261719 291.75 81.550781 C 288.582031 80.835938 285.335938 81.628906 282.800781 83.769531 L 278.917969 87.175781 C 277.332031 86.9375 275.75 87.253906 274.402344 88.285156 L 272.339844 89.789062 C 269.726562 73.785156 262.914062 57.941406 252.058594 42.492188 C 253.644531 42.175781 255.226562 42.015625 256.890625 41.9375 Z M 280.265625 91.058594 C 281.292969 92.246094 281.214844 93.988281 280.183594 95.097656 L 278.679688 96.683594 L 272.894531 102.703125 L 245.085938 131.382812 C 243.660156 132.808594 241.839844 133.601562 239.699219 133.523438 C 239.304688 133.523438 238.90625 133.445312 238.589844 133.363281 C 237.957031 133.285156 237.324219 133.046875 236.769531 132.808594 C 235.898438 132.414062 235.183594 131.78125 234.550781 131.066406 C 233.203125 129.5625 232.570312 127.582031 232.808594 125.601562 C 233.042969 123.539062 234.074219 121.796875 235.738281 120.609375 L 237.324219 119.421875 L 239.222656 118.074219 L 269.964844 95.335938 L 276.304688 90.660156 C 276.855469 90.265625 277.492188 90.105469 278.125 90.105469 C 278.757812 90.105469 279.390625 90.34375 279.945312 90.660156 C 279.945312 90.820312 280.105469 90.976562 280.265625 91.058594 Z M 242.550781 55.167969 C 242.472656 54.613281 241.917969 54.296875 241.441406 54.453125 C 233.363281 56.277344 225.914062 60 219.578125 65.148438 C 218.308594 63.40625 217.042969 61.664062 215.613281 59.921875 C 215.535156 59.84375 215.378906 59.84375 215.296875 59.761719 C 224.882812 52.15625 236.6875 45.183594 249.921875 42.730469 C 259.269531 55.878906 267.269531 72.914062 270.441406 91.136719 L 238.828125 114.507812 C 237.480469 100.40625 232.570312 83.925781 220.683594 66.734375 C 226.785156 61.664062 234.074219 58.097656 241.917969 56.277344 C 242.3125 56.199219 242.632812 55.644531 242.550781 55.167969 Z M 35.847656 81.074219 C 31.332031 79.570312 25.390625 79.648438 19.925781 81.3125 L 19.371094 81.472656 C 17.308594 82.105469 13.429688 83.292969 11.683594 82.183594 C 11.449219 82.027344 10.894531 81.628906 10.65625 80.203125 C 10.417969 78.539062 12.476562 76.953125 14.539062 76.398438 C 32.285156 71.726562 42.027344 77.984375 51.773438 86.222656 C 50.347656 87.253906 48.921875 88.285156 47.574219 89.394531 C 47.257812 89.15625 47.019531 88.917969 46.625 88.601562 C 43.375 85.75 39.335938 82.261719 35.847656 81.074219 Z M 63.894531 154.753906 C 63.65625 154.675781 63.5 154.597656 63.261719 154.519531 C 72.136719 153.410156 78.789062 148.417969 81.484375 146.121094 C 83.070312 148.496094 85.683594 149.449219 85.839844 149.527344 C 86 149.605469 86.160156 149.605469 86.394531 149.605469 C 87.03125 149.605469 87.585938 149.210938 87.820312 148.574219 C 88.140625 147.785156 87.742188 146.914062 86.949219 146.59375 C 86.949219 146.59375 84.574219 145.644531 83.703125 143.664062 C 83.226562 142.476562 83.304688 141.128906 83.941406 139.625 C 84.257812 138.832031 83.941406 137.960938 83.148438 137.644531 C 82.355469 137.324219 81.484375 137.644531 81.167969 138.433594 C 80.453125 140.019531 80.296875 141.605469 80.453125 143.03125 C 78.871094 144.535156 69.203125 153.011719 56.84375 151.507812 C 45.832031 145.167969 38.066406 133.761719 37.117188 121.558594 C 35.847656 105.082031 46.070312 90.105469 63.183594 83.609375 C 64.6875 83.054688 66.191406 82.5 67.777344 82.105469 C 69.601562 85.90625 71.265625 89.550781 72.214844 93.277344 C 72.453125 93.910156 73.007812 94.386719 73.71875 94.386719 C 73.878906 94.386719 74.035156 94.386719 74.117188 94.304688 C 74.910156 94.066406 75.382812 93.195312 75.226562 92.402344 C 75.144531 92.085938 75.066406 91.847656 74.988281 91.53125 C 74.035156 88.125 72.53125 84.796875 70.945312 81.390625 C 70.550781 80.597656 70.15625 79.808594 69.757812 78.9375 C 69.679688 78.777344 69.601562 78.617188 69.519531 78.539062 C 67.777344 74.972656 65.796875 71.09375 62.707031 68.160156 C 59.222656 64.914062 53.753906 62.535156 48.050781 61.824219 L 47.496094 61.742188 C 45.355469 61.425781 41.316406 60.949219 40.207031 59.207031 C 40.046875 58.96875 39.652344 58.414062 40.046875 57.070312 C 40.523438 55.484375 43.058594 54.851562 45.199219 55.167969 C 62.707031 58.097656 69.28125 67.683594 74.273438 77.828125 C 74.75 78.777344 75.226562 79.808594 75.699219 80.757812 C 76.015625 81.390625 76.335938 82.105469 76.652344 82.816406 C 77.285156 84.242188 77.917969 85.667969 78.632812 87.097656 C 78.710938 87.253906 78.789062 87.414062 78.949219 87.492188 C 79.425781 87.886719 80.136719 88.046875 80.691406 87.808594 C 81.484375 87.414062 81.800781 86.542969 81.40625 85.75 C 80.769531 84.402344 80.136719 82.976562 79.425781 81.550781 C 79.265625 81.234375 79.105469 80.917969 79.027344 80.597656 C 90.121094 80.441406 101.6875 84.480469 109.53125 94.703125 C 119.59375 107.851562 119.433594 127.898438 109.054688 141.285156 C 98.835938 154.4375 79.898438 160.144531 63.894531 154.753906 Z M 114.441406 192.625 C 111.75 198.886719 105.570312 203.003906 98.675781 203.003906 L 86.316406 203.003906 C 85.285156 203.003906 84.414062 202.132812 84.414062 201.101562 C 84.414062 199.996094 85.285156 199.203125 86.316406 199.203125 L 98.675781 199.203125 C 103.984375 199.203125 108.816406 196.03125 110.878906 191.199219 L 125.535156 157.210938 C 126.644531 157.925781 127.753906 158.558594 128.863281 159.191406 Z M 129.574219 210.925781 L 117.214844 210.925781 C 116.183594 210.925781 115.3125 210.054688 115.3125 209.027344 C 115.3125 207.996094 116.183594 207.125 117.214844 207.125 L 129.574219 207.125 C 134.882812 207.125 139.714844 203.957031 141.777344 199.042969 L 150.410156 179 C 150.886719 179.472656 151.519531 179.792969 152.15625 180.109375 C 152.707031 180.347656 153.34375 180.503906 153.976562 180.503906 L 145.261719 200.628906 C 142.648438 206.886719 136.386719 210.925781 129.574219 210.925781 Z M 154.214844 165.371094 L 155.164062 162.28125 L 157.304688 155.074219 L 165.226562 128.292969 C 165.78125 126.472656 166.96875 125.046875 168.710938 124.175781 C 169.664062 123.777344 170.695312 123.460938 171.644531 123.460938 C 172.4375 123.460938 173.308594 123.621094 174.101562 123.9375 C 175.84375 124.648438 177.191406 125.996094 177.902344 127.738281 C 178.617188 129.480469 178.535156 131.382812 177.664062 133.125 L 169.980469 148.894531 L 166.097656 156.894531 L 164.117188 160.933594 L 162.375 164.5 L 156.828125 175.988281 C 156.511719 176.542969 156.035156 177.019531 155.480469 177.257812 C 155.085938 177.414062 154.769531 177.492188 154.292969 177.492188 C 153.976562 177.492188 153.660156 177.414062 153.261719 177.335938 C 152.628906 177.097656 152.074219 176.621094 151.835938 175.988281 C 151.519531 175.433594 151.441406 174.722656 151.679688 174.007812 L 153.34375 168.304688 Z M 180.359375 134.394531 C 181.546875 131.9375 181.625 129.085938 180.675781 126.550781 C 179.726562 124.015625 177.664062 121.957031 175.128906 121.003906 C 172.59375 119.976562 169.742188 120.132812 167.285156 121.320312 C 164.832031 122.511719 163.007812 124.730469 162.214844 127.34375 L 151.917969 162.28125 C 145.421875 162.125 139.003906 160.539062 132.742188 157.449219 C 132.109375 157.132812 131.476562 156.816406 130.761719 156.5 C 124.503906 153.171875 118.246094 148.339844 112.222656 142.078125 C 122.285156 128.054688 122.445312 107.933594 112.699219 94.066406 C 112.9375 93.988281 113.175781 93.832031 113.332031 93.59375 C 125.058594 77.746094 142.566406 70.378906 161.265625 73.390625 C 177.824219 76.003906 188.679688 83.132812 194.621094 95.019531 C 198.421875 102.703125 200.085938 111.339844 199.609375 119.738281 C 198.820312 120.765625 198.265625 121.957031 197.949219 123.222656 C 197.472656 125.046875 197.628906 126.945312 198.183594 128.769531 C 197.789062 130.355469 197.234375 131.859375 196.679688 133.363281 C 196.679688 133.363281 196.679688 133.363281 196.679688 133.445312 C 196.285156 134.632812 195.730469 135.820312 195.09375 137.089844 C 193.75 139.703125 192.164062 142.160156 190.339844 144.457031 C 188.597656 146.59375 186.617188 148.65625 184.320312 150.636719 C 183.925781 151.03125 183.449219 151.429688 182.972656 151.746094 L 182.5 152.0625 C 178.21875 155.390625 173.308594 158.003906 168.078125 159.824219 Z M 189.785156 167.113281 C 189.46875 167.433594 189.152344 167.589844 188.757812 167.667969 C 188.519531 167.75 188.28125 167.828125 187.964844 167.828125 C 187.886719 167.828125 187.804688 167.828125 187.648438 167.828125 C 186.222656 167.667969 185.113281 166.480469 185.191406 165.054688 L 185.191406 162.996094 L 185.351562 153.648438 C 185.667969 153.328125 185.984375 153.09375 186.222656 152.855469 C 188.519531 150.875 190.660156 148.8125 192.402344 146.59375 C 192.480469 146.515625 192.558594 146.4375 192.558594 146.359375 C 192.796875 146.039062 193.035156 145.722656 193.273438 145.40625 C 193.75 144.773438 194.222656 144.140625 194.621094 143.503906 L 194.066406 146.675781 L 190.578125 165.53125 C 190.578125 166.164062 190.261719 166.71875 189.785156 167.113281 Z M 164.355469 213.460938 C 163.800781 214.253906 162.453125 214.335938 161.742188 213.78125 C 160.871094 213.144531 160.710938 211.957031 161.34375 211.085938 C 169.980469 199.757812 178.773438 187.238281 183.765625 169.015625 C 184.636719 169.96875 185.824219 170.601562 187.25 170.757812 C 181.546875 191.121094 171.644531 203.957031 164.355469 213.460938 Z M 216.167969 151.109375 L 201.828125 129.164062 C 201.671875 128.925781 201.511719 128.609375 201.433594 128.375 C 201.988281 125.917969 202.382812 123.460938 202.621094 120.925781 C 203.097656 120.449219 203.652344 119.976562 204.285156 119.65625 C 205.316406 119.105469 206.34375 118.867188 207.453125 118.867188 C 208.167969 118.867188 208.878906 118.945312 209.59375 119.261719 C 211.414062 119.894531 212.761719 121.164062 213.554688 122.90625 L 222.902344 144.058594 L 232.808594 166.480469 C 233.203125 167.273438 233.125 168.144531 232.726562 168.859375 C 232.492188 169.332031 232.09375 169.730469 231.617188 170.046875 C 230.828125 170.441406 229.875 170.441406 229.082031 170.125 C 228.6875 169.886719 228.292969 169.570312 227.972656 169.175781 Z M 247.304688 196.824219 C 252.851562 205.855469 256.890625 206.332031 261.089844 206.886719 C 261.726562 206.964844 262.4375 207.046875 263.070312 207.203125 C 263.546875 207.28125 264.023438 207.601562 264.339844 207.996094 C 264.65625 208.390625 264.734375 208.945312 264.65625 209.421875 C 264.496094 210.453125 263.546875 211.164062 262.4375 211.007812 C 261.882812 210.925781 261.328125 210.847656 260.617188 210.769531 C 254.910156 210.054688 250.15625 208.710938 244.058594 198.886719 C 238.988281 190.726562 234.707031 181.929688 230.589844 173.292969 C 231.460938 173.292969 232.253906 173.058594 233.042969 172.660156 C 233.441406 172.421875 233.835938 172.1875 234.152344 171.867188 C 238.195312 180.1875 242.394531 188.824219 247.304688 196.824219 Z M 216.328125 121.558594 C 215.21875 119.105469 213.078125 117.121094 210.542969 116.25 C 207.929688 115.378906 205.078125 115.617188 202.699219 116.964844 C 202.699219 109.042969 200.957031 100.960938 197.3125 93.671875 C 195.648438 90.34375 193.667969 87.414062 191.292969 84.71875 C 193.667969 81.472656 201.828125 70.773438 213.871094 60.871094 C 213.871094 60.949219 213.953125 61.03125 214.03125 61.109375 C 215.457031 62.851562 216.722656 64.675781 217.992188 66.417969 C 215.773438 68.398438 213.632812 70.539062 211.734375 72.914062 C 211.414062 73.308594 211.496094 73.945312 211.890625 74.261719 C 212.050781 74.417969 212.289062 74.5 212.523438 74.5 C 212.84375 74.5 213.078125 74.339844 213.238281 74.101562 C 214.980469 71.882812 216.960938 69.824219 219.101562 68.003906 C 231.0625 85.273438 235.816406 101.832031 236.925781 115.855469 L 233.757812 118.152344 C 231.460938 119.816406 229.953125 122.429688 229.636719 125.285156 C 229.320312 128.136719 230.191406 130.988281 232.09375 133.125 C 233.203125 134.394531 234.628906 135.425781 236.214844 135.980469 C 235.660156 139.859375 234.867188 143.347656 234.074219 146.359375 C 231.460938 145.804688 228.847656 145.011719 226.230469 144.058594 Z M 236.054688 146.753906 C 236.847656 143.824219 237.640625 140.335938 238.195312 136.535156 C 238.671875 136.613281 239.144531 136.691406 239.621094 136.691406 L 239.859375 136.691406 C 242.632812 136.691406 245.324219 135.582031 247.226562 133.601562 L 271.785156 108.25 C 271.550781 121.558594 268.222656 134.949219 260.378906 147.308594 C 260.378906 147.308594 260.378906 147.386719 260.378906 147.386719 C 252.851562 148.339844 244.613281 148.417969 236.054688 146.753906 Z M 281.691406 141.839844 C 280.027344 142.476562 278.203125 143.109375 276.300781 143.742188 L 276.222656 143.585938 L 274.796875 144.058594 C 272.660156 144.773438 270.359375 145.328125 268.0625 145.882812 L 266.480469 146.199219 L 266.480469 146.359375 C 265.289062 146.59375 264.023438 146.832031 262.753906 147.070312 C 266.480469 140.8125 273.371094 126.550781 273.609375 106.425781 L 278.996094 100.882812 L 289.375 92.007812 L 301.8125 120.609375 C 298.960938 126.472656 295 132.414062 289.769531 138.355469 C 287.15625 139.542969 284.464844 140.734375 281.691406 141.839844 Z M 294.445312 135.820312 C 297.21875 132.492188 300.308594 128.214844 303.003906 123.066406 L 305.539062 128.847656 C 302.050781 131.382812 298.40625 133.679688 294.445312 135.820312 Z M 364.164062 182.167969 C 363.925781 182.644531 363.609375 183.039062 363.136719 183.199219 L 343.566406 191.121094 C 340.160156 192.46875 336.117188 190.804688 334.613281 187.476562 L 292.304688 90.34375 C 291.910156 89.394531 291.117188 88.757812 290.167969 88.523438 C 289.929688 88.441406 289.691406 88.441406 289.535156 88.441406 C 288.820312 88.441406 288.109375 88.679688 287.472656 89.15625 L 283.988281 92.167969 C 283.828125 91.058594 283.355469 90.027344 282.640625 89.078125 C 282.480469 88.917969 282.402344 88.757812 282.246094 88.679688 L 285.019531 86.304688 C 286.679688 84.878906 288.898438 84.324219 291.039062 84.796875 C 293.179688 85.273438 294.921875 86.777344 295.792969 88.757812 L 338.101562 185.8125 C 338.8125 187.316406 340.554688 188.03125 342.0625 187.476562 L 361.628906 179.632812 C 362.105469 179.394531 362.660156 179.472656 363.054688 179.632812 C 363.53125 179.871094 363.925781 180.1875 364.085938 180.664062 C 364.324219 181.136719 364.324219 181.691406 364.164062 182.167969 Z M 364.164062 182.167969 "/></g><path style=" stroke:none;fill-rule:nonzero;fill:#000000;fill-opacity:1;" d="M 73.5625 115.695312 C 73.5625 116.382812 73.503906 117.0625 73.382812 117.738281 C 73.265625 118.410156 73.09375 119.066406 72.863281 119.699219 C 72.628906 120.332031 72.347656 120.9375 72.011719 121.507812 C 71.675781 122.078125 71.296875 122.605469 70.871094 123.089844 C 70.441406 123.578125 69.980469 124.011719 69.476562 124.390625 C 68.976562 124.773438 68.445312 125.097656 67.886719 125.359375 C 67.332031 125.621094 66.753906 125.820312 66.164062 125.953125 C 65.570312 126.085938 64.972656 126.15625 64.371094 126.15625 C 63.769531 126.15625 63.171875 126.085938 62.578125 125.953125 C 61.984375 125.820312 61.410156 125.621094 60.855469 125.359375 C 60.296875 125.097656 59.765625 124.773438 59.265625 124.390625 C 58.761719 124.011719 58.300781 123.578125 57.871094 123.089844 C 57.445312 122.605469 57.066406 122.078125 56.730469 121.507812 C 56.394531 120.9375 56.109375 120.332031 55.878906 119.699219 C 55.648438 119.066406 55.476562 118.410156 55.355469 117.738281 C 55.238281 117.0625 55.179688 116.382812 55.179688 115.695312 C 55.179688 115.011719 55.238281 114.332031 55.355469 113.65625 C 55.476562 112.984375 55.648438 112.328125 55.878906 111.695312 C 56.109375 111.058594 56.394531 110.457031 56.730469 109.886719 C 57.066406 109.316406 57.445312 108.789062 57.871094 108.300781 C 58.300781 107.816406 58.761719 107.382812 59.265625 107 C 59.765625 106.621094 60.296875 106.296875 60.855469 106.035156 C 61.410156 105.773438 61.984375 105.574219 62.578125 105.441406 C 63.171875 105.304688 63.769531 105.238281 64.371094 105.238281 C 64.972656 105.238281 65.570312 105.304688 66.164062 105.441406 C 66.753906 105.574219 67.332031 105.773438 67.886719 106.035156 C 68.445312 106.296875 68.976562 106.621094 69.476562 107 C 69.980469 107.382812 70.441406 107.816406 70.871094 108.300781 C 71.296875 108.789062 71.675781 109.316406 72.011719 109.886719 C 72.347656 110.457031 72.628906 111.058594 72.863281 111.695312 C 73.09375 112.328125 73.265625 112.984375 73.382812 113.65625 C 73.503906 114.332031 73.5625 115.011719 73.5625 115.695312 Z M 73.5625 115.695312 "/><path style=" stroke:none;fill-rule:nonzero;fill:#000000;fill-opacity:1;" d="M 176.554688 85.117188 C 169.347656 81.550781 160.710938 79.808594 152.15625 80.203125 C 143.675781 80.597656 135.277344 83.132812 128.625 87.332031 C 128.148438 87.652344 128.070312 88.207031 128.308594 88.679688 C 128.464844 88.996094 128.78125 89.15625 129.097656 89.15625 C 129.257812 89.15625 129.417969 89.078125 129.574219 88.996094 C 135.992188 84.957031 143.992188 82.578125 152.15625 82.183594 C 160.316406 81.789062 168.632812 83.53125 175.605469 86.9375 C 176.082031 87.175781 176.636719 86.9375 176.875 86.460938 C 177.191406 85.90625 177.03125 85.351562 176.554688 85.117188 Z M 176.554688 85.117188 "/><path style=" stroke:none;fill-rule:nonzero;fill:#000000;fill-opacity:1;" d="M 187.570312 101.515625 C 187.648438 101.992188 188.042969 102.386719 188.519531 102.386719 C 188.519531 102.386719 188.597656 102.386719 188.597656 102.386719 C 189.152344 102.308594 189.46875 101.832031 189.46875 101.355469 C 189.152344 98.109375 187.726562 95.019531 185.429688 92.640625 C 185.035156 92.246094 184.480469 92.246094 184.082031 92.5625 C 183.6875 92.957031 183.6875 93.511719 184.003906 93.910156 C 186.0625 95.96875 187.25 98.742188 187.570312 101.515625 Z M 187.570312 101.515625 "/><path style=" stroke:none;fill-rule:nonzero;fill:#000000;fill-opacity:1;" d="M 109.054688 128.375 C 108.578125 128.214844 108.023438 128.453125 107.789062 128.925781 C 106.125 133.125 103.113281 136.929688 99.46875 139.625 C 99.074219 139.941406 98.914062 140.574219 99.230469 140.96875 C 99.390625 141.207031 99.707031 141.367188 100.023438 141.367188 C 100.179688 141.367188 100.417969 141.285156 100.578125 141.207031 C 104.617188 138.277344 107.707031 134.234375 109.53125 129.640625 C 109.769531 129.085938 109.53125 128.53125 109.054688 128.375 Z M 109.054688 128.375 "/><path style=" stroke:none;fill-rule:nonzero;fill:#ffffff;fill-opacity:1;" d="M 70.480469 112.230469 C 70.582031 112.59375 70.621094 112.960938 70.601562 113.328125 C 70.582031 113.695312 70.503906 114.039062 70.367188 114.351562 C 70.230469 114.667969 70.042969 114.933594 69.8125 115.144531 C 69.578125 115.359375 69.316406 115.507812 69.019531 115.589844 C 68.726562 115.667969 68.425781 115.675781 68.117188 115.613281 C 67.804688 115.546875 67.511719 115.414062 67.234375 115.210938 C 66.953125 115.011719 66.710938 114.757812 66.507812 114.453125 C 66.304688 114.144531 66.152344 113.808594 66.050781 113.445312 C 65.949219 113.082031 65.910156 112.714844 65.929688 112.347656 C 65.949219 111.980469 66.027344 111.636719 66.164062 111.324219 C 66.300781 111.007812 66.488281 110.742188 66.722656 110.527344 C 66.953125 110.316406 67.21875 110.167969 67.511719 110.085938 C 67.804688 110.007812 68.105469 110 68.417969 110.0625 C 68.726562 110.128906 69.019531 110.261719 69.300781 110.464844 C 69.578125 110.664062 69.820312 110.917969 70.023438 111.222656 C 70.230469 111.53125 70.382812 111.863281 70.480469 112.230469 Z M 70.480469 112.230469 "/><g style="fill:#000000;fill-opacity:1;"><g transform="translate(49.184609, 272.709439)"><path style="stroke:none" d="M 22.515625 -37.03125 L 22.578125 -32.0625 L 22.578125 0 C 21.054688 0.269531 19.242188 0.40625 17.140625 0.40625 C 15.035156 0.40625 13.265625 0.269531 11.828125 0 L 11.828125 -37.03125 L 7.53125 -36.96875 L 0.609375 -36.96875 C 0.335938 -38.257812 0.203125 -39.742188 0.203125 -41.421875 C 0.203125 -43.109375 0.335938 -44.601562 0.609375 -45.90625 L 33.875 -45.90625 C 34.226562 -44.738281 34.40625 -43.320312 34.40625 -41.65625 C 34.40625 -40 33.957031 -38.800781 33.0625 -38.0625 C 32.164062 -37.332031 30.734375 -36.96875 28.765625 -36.96875 L 26.8125 -36.96875 L 22.578125 -37.03125 Z M 22.515625 -37.03125 "/></g></g><g style="fill:#000000;fill-opacity:1;"><g transform="translate(95.691839, 272.709439)"><path style="stroke:none" d="M 30.3125 -28.09375 L 30.234375 -33.0625 L 30.234375 -45.90625 C 31.628906 -46.164062 33.4375 -46.296875 35.65625 -46.296875 C 37.875 -46.296875 39.65625 -46.164062 41 -45.90625 L 41 0 C 39.5625 0.269531 37.765625 0.40625 35.609375 0.40625 C 33.460938 0.40625 31.671875 0.269531 30.234375 0 L 30.234375 -14.25 L 30.3125 -19.21875 L 26.953125 -19.15625 L 19.15625 -19.15625 L 15.796875 -19.21875 L 15.859375 -14.25 L 15.859375 0 C 14.472656 0.269531 12.679688 0.40625 10.484375 0.40625 C 8.285156 0.40625 6.492188 0.269531 5.109375 0 L 5.109375 -45.90625 C 6.492188 -46.164062 8.285156 -46.296875 10.484375 -46.296875 C 12.679688 -46.296875 14.472656 -46.164062 15.859375 -45.90625 L 15.859375 -33.0625 L 15.796875 -28.09375 L 19.15625 -28.15625 L 26.953125 -28.15625 Z M 30.3125 -28.09375 "/></g></g><g style="fill:#000000;fill-opacity:1;"><g transform="translate(154.026912, 272.709439)"><path style="stroke:none" d="M 16.265625 -9.609375 C 15.054688 -9.609375 14.160156 -9.628906 13.578125 -9.671875 L 10.6875 0.0625 C 9.613281 0.332031 8.113281 0.46875 6.1875 0.46875 C 4.03125 0.46875 2.28125 0.222656 0.9375 -0.265625 L 0.609375 -0.8125 L 15.390625 -45.90625 C 17.140625 -46.164062 19.175781 -46.296875 21.5 -46.296875 C 24.144531 -46.296875 26.253906 -46.140625 27.828125 -45.828125 L 42.34375 -0.671875 C 40.769531 0.179688 39 0.609375 37.03125 0.609375 C 34.695312 0.609375 33.0625 0.207031 32.125 -0.59375 C 31.1875 -1.40625 30.378906 -2.953125 29.703125 -5.234375 L 28.421875 -9.671875 C 27.835938 -9.628906 26.96875 -9.609375 25.8125 -9.609375 Z M 16.0625 -18.078125 L 18.75 -18.140625 L 23.65625 -18.140625 C 23.875 -18.140625 24.265625 -18.128906 24.828125 -18.109375 C 25.390625 -18.085938 25.804688 -18.078125 26.078125 -18.078125 L 24.9375 -22.25 C 23.851562 -26.007812 22.617188 -30.625 21.234375 -36.09375 L 20.828125 -36.09375 C 20.472656 -34.164062 19.398438 -29.882812 17.609375 -23.25 Z M 16.0625 -18.078125 "/></g></g><g style="fill:#000000;fill-opacity:1;"><g transform="translate(209.136212, 272.709439)"><path style="stroke:none" d="M 22.109375 -9.078125 L 33.734375 -9.078125 C 33.734375 -7.285156 33.617188 -5.75 33.390625 -4.46875 C 33.171875 -3.1875 32.457031 -2.085938 31.25 -1.171875 C 30.039062 -0.253906 28.453125 0.203125 26.484375 0.203125 L 11.296875 0.203125 C 9.367188 0.203125 7.84375 -0.351562 6.71875 -1.46875 C 5.601562 -2.59375 5.046875 -4.117188 5.046875 -6.046875 L 5.046875 -45.90625 L 5.515625 -46.375 L 9.46875 -46.375 C 13.6875 -46.375 15.796875 -44.085938 15.796875 -39.515625 L 15.796875 -8.796875 C 17.765625 -8.984375 19.867188 -9.078125 22.109375 -9.078125 Z M 22.109375 -9.078125 "/></g></g><g style="fill:#000000;fill-opacity:1;"><g transform="translate(256.449886, 272.709439)"><path style="stroke:none" d="M 5.234375 0 L 5.234375 -45.90625 C 6.628906 -46.164062 8.421875 -46.296875 10.609375 -46.296875 C 12.804688 -46.296875 14.625 -46.164062 16.0625 -45.90625 L 16.0625 0 C 14.625 0.269531 12.804688 0.40625 10.609375 0.40625 C 8.421875 0.40625 6.628906 0.269531 5.234375 0 Z M 5.234375 0 "/></g></g><g style="fill:#000000;fill-opacity:1;"><g transform="translate(289.986794, 272.709439)"><path style="stroke:none" d="M 15.046875 -12.5 C 16.265625 -9.007812 18.707031 -7.265625 22.375 -7.265625 C 24.21875 -7.265625 25.707031 -7.722656 26.84375 -8.640625 C 27.988281 -9.554688 28.882812 -10.71875 29.53125 -12.125 C 30.1875 -13.539062 30.625 -15.117188 30.84375 -16.859375 C 31.070312 -18.609375 31.1875 -20.335938 31.1875 -22.046875 C 31.1875 -23.609375 31.128906 -25.351562 31.015625 -27.28125 C 30.898438 -29.207031 30.570312 -31.007812 30.03125 -32.6875 C 29.5 -34.375 28.648438 -35.785156 27.484375 -36.921875 C 26.316406 -38.066406 24.613281 -38.640625 22.375 -38.640625 C 20.226562 -38.640625 18.582031 -38.085938 17.4375 -36.984375 C 16.289062 -35.890625 15.4375 -34.535156 14.875 -32.921875 C 14.320312 -31.316406 13.976562 -29.601562 13.84375 -27.78125 C 13.707031 -25.96875 13.640625 -24.367188 13.640625 -22.984375 C 13.640625 -20.921875 13.738281 -19.082031 13.9375 -17.46875 C 14.144531 -15.851562 14.515625 -14.195312 15.046875 -12.5 Z M 9.609375 -3.21875 C 4.816406 -7.207031 2.421875 -13.773438 2.421875 -22.921875 C 2.421875 -26.859375 2.878906 -30.316406 3.796875 -33.296875 C 4.710938 -36.273438 6.03125 -38.769531 7.75 -40.78125 C 9.476562 -42.800781 11.570312 -44.328125 14.03125 -45.359375 C 16.5 -46.390625 19.28125 -46.90625 22.375 -46.90625 C 25.46875 -46.90625 28.253906 -46.390625 30.734375 -45.359375 C 33.222656 -44.328125 35.332031 -42.789062 37.0625 -40.75 C 38.789062 -38.71875 40.113281 -36.210938 41.03125 -33.234375 C 41.945312 -30.253906 42.40625 -26.816406 42.40625 -22.921875 C 42.40625 -19.015625 41.945312 -15.570312 41.03125 -12.59375 C 40.113281 -9.613281 38.789062 -7.113281 37.0625 -5.09375 C 35.332031 -3.082031 33.222656 -1.5625 30.734375 -0.53125 C 28.253906 0.5 25.46875 1.015625 22.375 1.015625 C 17.269531 1.015625 13.015625 -0.394531 9.609375 -3.21875 Z M 9.609375 -3.21875 "/></g></g></g></svg>